<svg width="300" height="300" xmlns="http://www.w3.org/2000/svg">
  <rect width="100%" height="100%" fill="#f0f8f0"/>
  <!-- Pot -->
  <path d="M115 210 L185 210 L190 280 L110 280 Z" fill="#8b4513" stroke="#654321" stroke-width="2"/>
  <!-- Soil -->
  <ellipse cx="150" cy="215" rx="35" ry="8" fill="#4a4a4a"/>
  <!-- Multiple bamboo stalks -->
  <rect x="130" y="80" width="12" height="135" fill="#228b22" rx="6"/>
  <rect x="145" y="70" width="12" height="145" fill="#32cd32" rx="6"/>
  <rect x="160" y="85" width="12" height="130" fill="#228b22" rx="6"/>
  <!-- Bamboo joints -->
  <rect x="128" y="120" width="16" height="3" fill="#1a5f1a"/>
  <rect x="128" y="160" width="16" height="3" fill="#1a5f1a"/>
  <rect x="128" y="200" width="16" height="3" fill="#1a5f1a"/>
  <rect x="143" y="110" width="16" height="3" fill="#1a5f1a"/>
  <rect x="143" y="150" width="16" height="3" fill="#1a5f1a"/>
  <rect x="143" y="190" width="16" height="3" fill="#1a5f1a"/>
  <rect x="158" y="125" width="16" height="3" fill="#1a5f1a"/>
  <rect x="158" y="165" width="16" height="3" fill="#1a5f1a"/>
  <rect x="158" y="205" width="16" height="3" fill="#1a5f1a"/>
  <!-- Bamboo leaves -->
  <path d="M136 80 Q120 70 125 85 Q136 85 136 80" fill="#90ee90"/>
  <path d="M136 100 Q115 90 120 105 Q136 105 136 100" fill="#90ee90"/>
  <path d="M151 70 Q135 60 140 75 Q151 75 151 70" fill="#90ee90"/>
  <path d="M151 90 Q130 80 135 95 Q151 95 151 90" fill="#90ee90"/>
  <path d="M166 85 Q150 75 155 90 Q166 90 166 85" fill="#90ee90"/>
  <path d="M166 105 Q145 95 150 110 Q166 110 166 105" fill="#90ee90"/>
  <text x="150" y="40" text-anchor="middle" font-family="Arial, sans-serif" font-size="18" font-weight="bold" fill="#2d5016">Bamboo Palm</text>
</svg>
