<svg width="300" height="300" xmlns="http://www.w3.org/2000/svg">
  <rect width="100%" height="100%" fill="#f0f8f0"/>
  <!-- Pot -->
  <path d="M115 210 L185 210 L190 280 L110 280 Z" fill="#8b4513" stroke="#654321" stroke-width="2"/>
  <!-- Soil -->
  <ellipse cx="150" cy="215" rx="35" ry="8" fill="#4a4a4a"/>
  <!-- Main trunk -->
  <rect x="140" y="120" width="20" height="95" fill="#8b4513"/>
  <!-- Trunk texture -->
  <rect x="142" y="130" width="16" height="3" fill="#654321"/>
  <rect x="142" y="150" width="16" height="3" fill="#654321"/>
  <rect x="142" y="170" width="16" height="3" fill="#654321"/>
  <rect x="142" y="190" width="16" height="3" fill="#654321"/>
  <!-- Large tree crown -->
  <ellipse cx="150" cy="120" rx="60" ry="50" fill="#228b22" opacity="0.9"/>
  <ellipse cx="150" cy="110" rx="50" ry="40" fill="#32cd32"/>
  <ellipse cx="150" cy="100" rx="40" ry="30" fill="#90ee90"/>
  <!-- Leaf clusters -->
  <circle cx="120" cy="115" r="12" fill="#1a5f1a"/>
  <circle cx="180" cy="120" r="15" fill="#1a5f1a"/>
  <circle cx="140" cy="95" r="10" fill="#1a5f1a"/>
  <circle cx="160" cy="90" r="12" fill="#1a5f1a"/>
  <circle cx="130" cy="135" r="8" fill="#1a5f1a"/>
  <circle cx="170" cy="130" r="10" fill="#1a5f1a"/>
  <text x="150" y="40" text-anchor="middle" font-family="Arial, sans-serif" font-size="18" font-weight="bold" fill="#2d5016">Indoor Tree</text>
</svg>
