<svg width="300" height="300" xmlns="http://www.w3.org/2000/svg">
  <rect width="100%" height="100%" fill="#f0f8f0"/>
  <!-- Pot -->
  <path d="M120 220 L180 220 L185 280 L115 280 Z" fill="#8b4513" stroke="#654321" stroke-width="2"/>
  <!-- Soil -->
  <ellipse cx="150" cy="225" rx="30" ry="8" fill="#4a4a4a"/>
  <!-- Main stems -->
  <rect x="147" y="150" width="6" height="70" fill="#2d5016"/>
  <!-- Peace lily leaves -->
  <path d="M150 160 Q125 140 115 160 Q125 180 150 170 Q150 165 150 160" fill="#228b22" stroke="#1a5f1a" stroke-width="1"/>
  <path d="M150 160 Q175 140 185 160 Q175 180 150 170 Q150 165 150 160" fill="#32cd32" stroke="#228b22" stroke-width="1"/>
  <path d="M150 140 Q130 120 120 140 Q130 160 150 150 Q150 145 150 140" fill="#228b22" stroke="#1a5f1a" stroke-width="1"/>
  <path d="M150 140 Q170 120 180 140 Q170 160 150 150 Q150 145 150 140" fill="#32cd32" stroke="#228b22" stroke-width="1"/>
  <!-- White flower -->
  <path d="M150 120 Q140 110 130 120 Q140 130 150 125 Q160 130 170 120 Q160 110 150 120" fill="white" stroke="#ddd" stroke-width="1"/>
  <circle cx="150" cy="120" r="3" fill="#ffff99"/>
  <text x="150" y="40" text-anchor="middle" font-family="Arial, sans-serif" font-size="20" font-weight="bold" fill="#2d5016">Peace Lily</text>
</svg>
