<svg width="300" height="300" xmlns="http://www.w3.org/2000/svg">
  <rect width="100%" height="100%" fill="#f0f8f0"/>
  <!-- Pot -->
  <path d="M120 220 L180 220 L185 280 L115 280 Z" fill="#8b4513" stroke="#654321" stroke-width="2"/>
  <!-- Soil -->
  <ellipse cx="150" cy="225" rx="30" ry="8" fill="#4a4a4a"/>
  <!-- Trailing vines -->
  <path d="M150 220 Q180 200 200 230 Q220 250 190 270" stroke="#2d5016" stroke-width="3" fill="none"/>
  <path d="M150 220 Q120 200 100 230 Q80 250 110 270" stroke="#2d5016" stroke-width="3" fill="none"/>
  <path d="M150 220 Q170 180 200 200 Q230 220 210 250" stroke="#2d5016" stroke-width="3" fill="none"/>
  <!-- Heart-shaped leaves -->
  <path d="M190 240 Q200 230 210 240 Q210 250 200 255 Q190 250 190 240" fill="#32cd32" stroke="#228b22" stroke-width="1"/>
  <path d="M110 240 Q100 230 90 240 Q90 250 100 255 Q110 250 110 240" fill="#32cd32" stroke="#228b22" stroke-width="1"/>
  <path d="M200 210 Q210 200 220 210 Q220 220 210 225 Q200 220 200 210" fill="#228b22" stroke="#1a5f1a" stroke-width="1"/>
  <path d="M180 200 Q190 190 200 200 Q200 210 190 215 Q180 210 180 200" fill="#32cd32" stroke="#228b22" stroke-width="1"/>
  <path d="M170 185 Q180 175 190 185 Q190 195 180 200 Q170 195 170 185" fill="#228b22" stroke="#1a5f1a" stroke-width="1"/>
  <path d="M140 200 Q130 190 120 200 Q120 210 130 215 Q140 210 140 200" fill="#32cd32" stroke="#228b22" stroke-width="1"/>
  <path d="M120 185 Q110 175 100 185 Q100 195 110 200 Q120 195 120 185" fill="#228b22" stroke="#1a5f1a" stroke-width="1"/>
  <text x="150" y="40" text-anchor="middle" font-family="Arial, sans-serif" font-size="20" font-weight="bold" fill="#2d5016">Pothos</text>
</svg>
